<?xml version="1.0" encoding="utf-8"?>
<!-- Generator: Adobe Illustrator 18.1.1, SVG Export Plug-In . SVG Version: 6.00 Build 0)  -->
<svg version="1.1" id="Isolation_Mode" xmlns="http://www.w3.org/2000/svg" xmlns:xlink="http://www.w3.org/1999/xlink" x="0px"
	 y="0px" viewBox="0 0 612 516.2" enable-background="new 0 0 612 516.2" xml:space="preserve">
<g>
	<path fill-rule="evenodd" clip-rule="evenodd" fill="#A38B77" d="M509.1,422.6c-103.9,0-206.4,0-308.9,0
		c15,4.7,26.1,13.8,32.5,28.1c4.2,9.3,5.1,19.3,2.6,29.4c-5.3,21.4-23.6,35.8-45.3,36.1c-21.3,0.3-40.3-14.4-45.7-35.5
		c-2.1-8.2-1.8-16.5,0.5-24.7c2.3-8.3,6.5-15.6,13.2-20.8c6.3-5,13.7-8.7,20.4-12.8c-3.1,0-7,0.1-10.9,0
		c-18.1-0.4-29.1-15.5-22.4-32.3c5.1-13,12.1-25.2,18-37.8c1-2.2,1.6-5.1,1.1-7.4c-14.1-66.1-28.3-132.2-42.5-198.3
		c-6.8-31.6-13.7-63.1-20.2-94.8c-0.9-4.2-2.6-4.8-6.3-4.8c-22.7,0.1-45.3,0.2-68,0C13,46.9,2.2,36.8,2,23.8C1.9,12.7,10,2.7,21,0.7
		c2.6-0.5,5.3-0.6,8-0.6c28.8,0,57.7,0,86.5,0c15.8,0,23.1,5.4,27.4,20.8c1.9,6.9,3.3,13.9,4.4,21c0.6,4.2,2.2,5.3,6.4,5.3
		C256.3,47,359,47,461.6,47c41.2,0,82.3,0.4,123.5-0.2c16.8-0.3,27.2,12.3,27.1,27c-0.5,60.3-0.2,120.7-0.2,181
		c0,16.9-8.2,25.5-25.1,27.4c-32.3,3.6-64.5,7.5-96.8,11.3c-39.2,4.6-78.4,9.1-117.6,13.7c-32.1,3.7-64.2,7.5-96.3,11.3
		c-21.5,2.5-43,5.1-64.5,7.6c-0.8,0.1-1.6,0.2-3.5,0.5c5.3,16.5,8,32.8-4.3,47.8c0.5,0.3,0.9,0.7,1.4,1c2.2,0,4.4,0,6.6,0
		c108.5,0,217-0.1,325.5,0.2c5.6,0,11.8,1.2,16.6,3.9c9.2,5,12.8,15.5,10.2,25.4c-2.4,9.5-11.2,16.7-21.5,17.3
		c-4.6,0.3-9.2,0-14.1,0.6c13.6,4.3,24.3,12.1,31,24.7c6.8,12.7,7.3,26,2.1,39.1c-7.1,17.7-25.6,32.4-51.1,28.9
		c-18.3-2.5-35.7-19.3-38.6-38.2C468.2,452.5,479.8,435,509.1,422.6z"/>
</g>
</svg>
